<?xml version="1.0" standalone="no"?>
<!DOCTYPE svg PUBLIC "-//W3C//DTD SVG 20010904//EN"
 "http://www.w3.org/TR/2001/REC-SVG-20010904/DTD/svg10.dtd">
<svg version="1.0" xmlns="http://www.w3.org/2000/svg"
 width="1533.000000pt" height="1533.000000pt" viewBox="0 0 1533.000000 1533.000000"
 preserveAspectRatio="xMidYMid meet">
<metadata>
Created by potrace 1.14, written by Peter Selinger 2001-2017
</metadata>
<g transform="translate(0.000000,1533.000000) scale(0.100000,-0.100000)"
fill="#000000" stroke="none">
<path d="M7285 15120 c-638 -32 -1312 -161 -1952 -371 -124 -41 -157 -56 -178
-81 -51 -60 -47 -144 9 -195 58 -54 81 -52 288 15 1457 479 3030 476 4487 -7
1271 -422 2398 -1190 3256 -2221 1332 -1601 1903 -3722 1554 -5775 -155 -915
-485 -1787 -972 -2575 -471 -763 -1088 -1435 -1812 -1975 -1962 -1465 -4550
-1823 -6840 -948 -665 255 -1293 609 -1855 1048 -393 307 -807 712 -1123 1098
-1351 1648 -1900 3800 -1501 5887 246 1289 830 2469 1709 3450 221 247 565
574 812 773 70 56 103 104 103 146 0 36 -26 86 -59 114 -27 22 -42 27 -86 27
-53 0 -55 -1 -172 -97 -549 -451 -1064 -1020 -1459 -1613 -111 -167 -234 -365
-293 -475 -18 -33 -37 -64 -41 -70 -16 -20 -239 -473 -295 -600 -120 -273
-264 -669 -338 -935 -8 -30 -24 -86 -35 -125 -19 -67 -27 -97 -71 -285 -78
-332 -143 -777 -171 -1185 -15 -207 -12 -750 5 -980 15 -210 32 -390 40 -415
2 -8 11 -71 20 -140 28 -217 111 -619 177 -855 75 -269 112 -384 227 -700 140
-389 355 -832 595 -1230 82 -135 249 -391 298 -455 10 -14 69 -92 130 -175 61
-82 134 -177 162 -210 360 -423 650 -720 940 -963 76 -63 233 -192 280 -229
39 -31 82 -63 206 -153 86 -62 314 -216 383 -258 34 -22 100 -63 147 -92 177
-110 524 -293 734 -387 454 -204 919 -364 1351 -467 220 -52 574 -118 722
-136 43 -5 114 -14 158 -20 330 -45 1119 -62 1405 -30 47 5 141 14 210 20 69
6 152 15 185 20 33 5 96 14 140 20 223 32 633 116 830 172 77 21 172 47 210
58 60 17 291 94 450 150 269 96 747 312 990 448 39 22 106 60 150 84 206 116
543 338 753 496 1348 1014 2307 2439 2735 4062 60 228 144 633 166 805 7 50
16 113 21 140 12 67 38 326 50 510 15 223 12 730 -5 965 -26 355 -90 801 -154
1065 -6 22 -22 92 -36 155 -119 517 -322 1076 -579 1590 -469 938 -1092 1718
-1941 2431 -180 152 -491 375 -760 546 -641 408 -1445 750 -2175 924 -91 21
-183 44 -205 49 -22 5 -89 19 -150 30 -60 11 -132 25 -160 30 -88 17 -396 58
-525 69 -69 7 -165 16 -213 22 -122 13 -725 19 -932 9z"/>
<path d="M7600 12564 c-237 -20 -313 -28 -430 -45 -1141 -164 -2179 -722
-2949 -1584 -608 -681 -1015 -1523 -1170 -2421 -54 -310 -66 -465 -66 -829 0
-348 8 -461 51 -745 220 -1439 1071 -2704 2324 -3455 181 -109 521 -276 705
-348 598 -234 1154 -339 1790 -341 305 0 439 9 725 50 709 101 1429 380 2027
786 132 90 153 114 153 180 0 62 -21 99 -73 128 -64 36 -98 26 -260 -83 -1260
-841 -2839 -1011 -4247 -456 -468 184 -918 454 -1305 784 -130 110 -381 361
-495 495 -602 704 -958 1509 -1082 2447 -20 148 -22 213 -23 548 0 406 7 503
61 809 252 1435 1189 2682 2500 3326 467 229 971 378 1514 445 173 22 666 31
855 16 1140 -91 2170 -572 2960 -1382 1297 -1331 1664 -3310 931 -5022 -42
-98 -76 -189 -76 -203 0 -38 28 -92 61 -115 44 -31 89 -34 142 -11 51 23 62
39 140 222 441 1034 513 2191 202 3273 -348 1212 -1164 2255 -2255 2882 -604
347 -1241 553 -1950 630 -136 15 -655 28 -760 19z"/>
<path d="M7701 9640 c-1005 -97 -1789 -864 -1911 -1870 -16 -137 -13 -230 10
-267 37 -61 122 -83 188 -49 49 25 70 67 76 155 22 290 75 496 186 726 99 204
212 358 385 523 620 592 1576 668 2284 182 372 -256 646 -657 746 -1093 76
-332 54 -710 -61 -1027 -133 -369 -384 -689 -709 -903 -323 -213 -722 -323
-1097 -302 -108 6 -132 4 -162 -10 -99 -47 -102 -199 -4 -252 48 -26 368 -31
534 -8 365 50 711 193 1006 416 110 83 317 292 400 404 191 258 321 545 383
850 93 457 33 927 -174 1350 -307 625 -897 1056 -1589 1160 -130 19 -369 26
-491 15z"/>
</g>
</svg>
